<svg xmlns="http://www.w3.org/2000/svg" xmlns:xlink="http://www.w3.org/1999/xlink" xml:space="preserve" version="1.1" style="shape-rendering:geometricPrecision;text-rendering:geometricPrecision;image-rendering:optimizeQuality;" viewBox="0 0 333 333" x="0px" y="0px" fill-rule="evenodd" clip-rule="evenodd"><defs><style type="text/css">
   
    .fil0 {fill:black}
   
  </style></defs><g><path class="fil0" d="M167 8c87,0 158,71 158,159 0,87 -71,158 -158,158 -88,0 -159,-71 -159,-158 0,-88 71,-159 159,-159zm-31 154c0,0 -6,-1 -7,-1 -10,2 -10,0 -1,6 6,4 4,4 10,3 2,1 4,1 6,2 0,1 0,3 0,4 0,0 5,3 6,3 0,0 8,0 8,0 1,0 9,-5 -5,-9 -2,0 -5,0 -8,1 -1,-2 -2,-4 -4,-6 0,0 -6,-3 -5,-3zm154 -74c14,23 23,50 23,79 0,8 -1,17 -2,25 -7,-6 -14,-11 -15,-12 -3,-3 -3,2 -5,8 -1,7 -9,1 -15,1 -6,0 -10,-8 -10,-8 -11,-9 -8,-14 -8,-28 0,-4 2,-9 5,-11 7,-8 1,-13 9,-19 3,-2 14,-5 14,-5 6,-8 9,-10 -6,-7 -1,1 -7,0 -10,-2 -4,-3 5,-5 5,-5 4,-5 8,-9 12,-13 1,-1 2,-2 3,-3zm-123 -67c14,0 27,2 40,5 3,4 8,10 9,11 1,1 4,9 4,9 -6,9 -8,14 -21,8 -4,-1 -11,-11 -11,-11 0,0 -11,-12 -13,-13 -4,-3 -10,-1 -13,4 2,3 3,5 5,8 9,0 9,-2 12,5 -3,1 -6,2 -10,3 -9,6 -6,6 -16,-1 0,0 -6,-7 -7,-8 -1,-1 -5,-10 -7,-13 0,-1 -1,-3 0,-5 9,-1 18,-2 28,-2zm5 292c-10,0 -20,-1 -31,-2 1,-7 1,-13 1,-19 0,-16 4,-19 -9,-28 -3,-5 -7,-11 -11,-16 -9,-9 -6,-8 -1,-20 1,-5 2,-10 3,-14 -2,-5 -3,-10 -5,-15 -4,-4 -8,-9 -12,-13 -22,-6 -21,-3 -37,-20 -3,-5 -6,-10 -10,-15 -11,-13 -9,-11 -13,-27 -1,-7 -2,-14 -3,-20 -1,-4 -2,-8 -3,-11 20,-34 53,-59 92,-68 -1,5 -2,10 -3,16 -24,19 -36,24 -7,35 7,11 5,16 14,9 0,-6 -1,-12 -2,-18 18,-12 13,-10 34,1 3,3 6,6 9,9 14,6 15,3 3,12 -3,-1 -7,-1 -11,-2 -2,2 -4,4 -6,6 5,11 8,10 -3,13 -3,2 -6,5 -9,7 -4,0 -8,0 -12,0 0,0 0,12 0,14 0,3 -9,11 -9,11 0,0 -5,7 -2,11 2,4 -3,7 -3,7 -3,-3 -5,-7 -8,-10 -4,0 -9,1 -14,2 -3,2 -6,3 -9,5 -1,3 -2,7 -2,10 1,5 2,10 4,15 2,0 5,0 8,-1 0,-15 -3,-15 9,-5 1,3 1,6 1,10 4,1 7,2 10,3 1,3 1,7 1,10 5,4 10,7 15,10 11,2 23,2 32,9 7,4 14,7 22,10 0,3 1,6 2,9 4,1 9,1 13,1 5,1 10,1 15,1 0,3 0,6 0,9 -2,17 -3,14 -15,25 -4,3 -8,6 -12,10 -10,14 -7,12 -23,18 -1,5 -2,11 -3,16z"/></g></svg>