<?xml version="1.0" encoding="UTF-8"?>
<svg version="1.1" xmlns="http://www.w3.org/2000/svg" width="512" height="512">
<path d="M0 0 C168.96 0 337.92 0 512 0 C512 168.96 512 337.92 512 512 C343.04 512 174.08 512 0 512 C0 343.04 0 174.08 0 0 Z " fill="#FEFEFE" transform="translate(0,0)"/>
<path d="M0 0 C2.39701491 2.91936145 1.79830787 6.80126826 1.75390625 10.41577148 C1.74254639 11.69303101 1.74254639 11.69303101 1.73095703 12.99609375 C1.3131034 29.23290968 -5.32735281 44.93212611 -16.68359375 56.60327148 C-31.37163808 69.48077106 -46.87323902 71.79901326 -65.68359375 70.60327148 C-75.72531787 69.12310218 -84.86368428 64.42943681 -94.0559082 60.32861328 C-107.60854696 54.32422305 -124.65728831 46.93123956 -139.61328125 51.49780273 C-141.33262241 52.20298179 -143.03824623 52.94330371 -144.72265625 53.72827148 C-146.68359375 54.60327148 -146.68359375 54.60327148 -148.68359375 54.60327148 C-148.68359375 55.26327148 -148.68359375 55.92327148 -148.68359375 56.60327148 C-149.34359375 56.60327148 -150.00359375 56.60327148 -150.68359375 56.60327148 C-149.37212446 35.18260636 -136.29935226 16.61548649 -121.47265625 2.06420898 C-116.55973353 -2.27072282 -111.19644056 -5.8635934 -105.68359375 -9.39672852 C-104.83023438 -9.95102539 -103.976875 -10.50532227 -103.09765625 -11.07641602 C-100.64675157 -12.41687845 -98.60229924 -13.05429312 -95.87109375 -13.58422852 C-95.08089844 -13.7427832 -94.29070312 -13.90133789 -93.4765625 -14.06469727 C-92.88488281 -14.17426758 -92.29320312 -14.28383789 -91.68359375 -14.39672852 C-91.68359375 -15.05672852 -91.68359375 -15.71672852 -91.68359375 -16.39672852 C-63.68350651 -29.41239407 -22.6533771 -18.79349919 0 0 Z " fill="#D05642" transform="translate(316.68359375,159.396728515625)"/>
<path d="M0 0 C4.72963855 4.12585491 7.12311087 8.59820823 9.75 14.25 C10.14832031 15.05824219 10.54664063 15.86648437 10.95703125 16.69921875 C13.56286617 22.22005544 14.63280893 26.9046283 15 33 C15.66 33 16.32 33 17 33 C22.1749672 54.80879035 18.77968896 79.41825023 7.3125 98.75 C-8.00788664 121.8470848 -27.45704902 139.26732065 -55.2890625 145.4765625 C-80.67503481 150.37817675 -106.71533292 145.04687327 -128.33203125 130.8046875 C-130.94900062 128.93014462 -133.53110856 127.06580713 -136 125 C-136 124.67 -136 124.34 -136 124 C-134.77667969 123.86464844 -133.55335938 123.72929687 -132.29296875 123.58984375 C-99.31850447 119.53942152 -69.09333175 101.61479408 -46 78 C-45.22140625 77.24460937 -44.4428125 76.48921875 -43.640625 75.7109375 C-37.60834603 69.81665184 -32.149652 63.67776485 -27 57 C-25.79537109 55.44539063 -25.79537109 55.44539063 -24.56640625 53.859375 C-12.11398507 37.35851547 -4.92640941 19.94755955 0 0 Z " fill="#1155A6" transform="translate(332,177)"/>
<path d="M0 0 C-1.38621584 11.9718641 -9.17448084 22.1983716 -18.29345703 29.58374023 C-39.59508568 46.31440758 -63.57102418 55.67356964 -89.7722168 61.6887207 C-97.25319449 63.45293575 -104.17492237 65.71765872 -111.20703125 68.80078125 C-113.49466957 69.78302595 -115.57171151 70.50023118 -118 71 C-118 71.66 -118 72.32 -118 73 C-118.66 73 -119.32 73 -120 73 C-118.68853071 51.57933488 -105.61575851 33.01221501 -90.7890625 18.4609375 C-85.87613978 14.12600569 -80.51284681 10.53313511 -75 7 C-74.14664063 6.44570312 -73.29328125 5.89140625 -72.4140625 5.3203125 C-69.96315782 3.97985007 -67.91870549 3.34243539 -65.1875 2.8125 C-64.39730469 2.65394531 -63.60710937 2.49539062 -62.79296875 2.33203125 C-62.20128906 2.22246094 -61.60960937 2.11289063 -61 2 C-61 1.34 -61 0.68 -61 0 C-45.75400348 -7.08700619 -15.21020537 -7.60510269 0 0 Z " fill="#3C8AE6" transform="translate(286,143)"/>
<path d="M0 0 C4.72963855 4.12585491 7.12311087 8.59820823 9.75 14.25 C10.14832031 15.05824219 10.54664063 15.86648437 10.95703125 16.69921875 C13.56286617 22.22005544 14.63280893 26.9046283 15 33 C15.66 33 16.32 33 17 33 C20.72187989 48.68506524 20.55461561 67.10314634 14 82 C12.91203125 81.96519531 11.8240625 81.93039062 10.703125 81.89453125 C1.62064223 81.69122305 -6.26662612 82.24580932 -15 85 C-16.08023438 85.30164063 -17.16046875 85.60328125 -18.2734375 85.9140625 C-24.35799745 87.65858668 -29.8391885 89.76293159 -35.42578125 92.72265625 C-38.29017461 94.14398649 -41.19029332 95.26154319 -44.1875 96.375 C-48.96957431 98.17037527 -53.62959522 100.13815611 -58.25 102.3125 C-58.8694751 102.60261963 -59.4889502 102.89273926 -60.12719727 103.19165039 C-63.53438941 104.79930905 -66.91198869 106.4550197 -70.2734375 108.15625 C-77.91731796 111.97261201 -84.45684079 114.68209149 -93.06640625 115.57421875 C-96.949049 116.13774479 -100.1946213 117.54367342 -103.765625 119.11328125 C-106.85494608 120.33928804 -109.70082288 120.71311503 -113 121 C-110.20367204 119.13578136 -107.51869065 117.96055563 -104.40332031 116.74267578 C-86.40088064 109.69324094 -70.8882992 99.24090797 -56 87 C-55.1853125 86.36707031 -54.370625 85.73414063 -53.53125 85.08203125 C-50.83861406 82.86725509 -48.43760938 80.49126745 -46 78 C-45.22140625 77.24460937 -44.4428125 76.48921875 -43.640625 75.7109375 C-37.60834603 69.81665184 -32.149652 63.67776485 -27 57 C-25.79537109 55.44539063 -25.79537109 55.44539063 -24.56640625 53.859375 C-12.11398507 37.35851547 -4.92640941 19.94755955 0 0 Z " fill="#D8803C" transform="translate(332,177)"/>
<path d="M0 0 C6.77063822 2.01289244 12.7806412 4.81479121 18.8125 8.4375 C19.74461304 8.99425415 19.74461304 8.99425415 20.69555664 9.56225586 C22.49388879 10.66782935 24.24800412 11.82264486 26 13 C26.58104492 13.35795654 27.16208984 13.71591309 27.76074219 14.0847168 C30.08795946 15.69578773 31.77351216 17.168851 32.53149414 19.95043945 C32.74066362 22.3115152 32.72821245 24.56950473 32.625 26.9375 C32.6038916 27.77998291 32.5827832 28.62246582 32.56103516 29.49047852 C31.88296955 45.65206482 25.3421195 61.3841052 14 73 C8.20126036 77.95809396 1.49921956 83.01583149 -6 85 C-6.99 84.67 -7.98 84.34 -9 84 C-6.32125586 22.14771178 -6.32125586 22.14771178 -1.88671875 9.5859375 C-0.78486095 6.37259007 -0.31361456 3.37135653 0 0 Z " fill="#E3A335" transform="translate(286,143)"/>
<path d="M0 0 C-3.45236685 16.36121679 -19.79957674 32.8782019 -33.015625 42.10546875 C-55.43613208 56.53799323 -80.90258645 61.63181179 -107 56 C-107 55.67 -107 55.34 -107 55 C-104.69 55 -102.38 55 -100 55 C-100 54.34 -100 53.68 -100 53 C-99.3709375 52.75765625 -98.741875 52.5153125 -98.09375 52.265625 C-85.34764606 47.27468069 -76.24577844 40.99882966 -66.1875 31.625 C-48.24969189 15.00090636 -25.52230519 -0.4995469 0 0 Z " fill="#327DDB" transform="translate(343,266)"/>
<path d="M0 0 C0.19920773 6.33037905 -0.49839115 12.16129041 -1.6875 18.375 C-1.86249023 19.29949951 -2.03748047 20.22399902 -2.21777344 21.17651367 C-3.53111405 27.66586027 -5.32741226 33.41586044 -9 39 C-9.66 39 -10.32 39 -11 39 C-11.2475 39.78375 -11.495 40.5675 -11.75 41.375 C-13.15389099 44.32317108 -14.00675737 44.9024777 -17 46 C-17 46.99 -17 47.98 -17 49 C-17.66 49 -18.32 49 -19 49 C-19.33 49.99 -19.66 50.98 -20 52 C-21.92578125 53.24609375 -21.92578125 53.24609375 -24.3125 54.4375 C-26.99001508 55.77847036 -28.83971352 56.82641174 -30.8828125 59.0390625 C-33.6243672 61.57828844 -35.94754544 62.06102498 -39.5625 62.9375 C-45.34853735 64.45505003 -50.5280281 66.41317357 -55.890625 69.046875 C-58 70 -58 70 -60 70 C-60 70.66 -60 71.32 -60 72 C-60.66 72 -61.32 72 -62 72 C-60.68853071 50.57933488 -47.61575851 32.01221501 -32.7890625 17.4609375 C-25.47096413 11.00379188 -16.70088588 4.34100933 -7.375 1.3125 C-6.61960938 1.06113281 -5.86421875 0.80976563 -5.0859375 0.55078125 C-3 0 -3 0 0 0 Z " fill="#18947E" transform="translate(228,144)"/>
<path d="M0 0 C9.54207705 -0.24259518 9.54207705 -0.24259518 13.1015625 2.10546875 C18.70484678 7.46050625 22.08311252 12.08473728 22.4765625 19.91796875 C22.32281676 26.00449146 20.58863706 30.33521243 16.5234375 34.86328125 C11.73089439 39.33200388 7.17177278 40.77053672 0.6640625 41.48046875 C-5.56353877 40.82493177 -10.03493918 38.39228866 -14.2109375 33.73046875 C-18.34797633 28.40980846 -20.46722509 24.07003667 -20.171875 17.265625 C-19.28813896 10.28411027 -14.16352305 5.35608695 -8.8984375 1.10546875 C-5.80524909 -0.01932704 -3.26222127 0.11870616 0 0 Z " fill="#0C0C0D" transform="translate(170.8984375,355.89453125)"/>
<path d="M0 0 C5.506875 -0.2165625 5.506875 -0.2165625 11.125 -0.4375 C12.2711377 -0.50122803 13.41727539 -0.56495605 14.59814453 -0.63061523 C21.89894561 -0.76951352 21.89894561 -0.76951352 25.06347656 1.44213867 C27.8833501 4.56330575 29.34629027 6.92527801 29.5 11.1875 C29.0808703 14.38336397 28.76071707 16.3589244 27 19 C27.61875 19.2475 28.2375 19.495 28.875 19.75 C31.48998244 21.28822496 32.06708246 22.12350424 33 25 C33.58660846 29.52526524 33.36431038 31.43210441 30.875 35.3125 C24.92113824 40.87806643 18.32193717 40.25311223 10.625 40.125 C7.11875 40.08375 3.6125 40.0425 0 40 C0 26.8 0 13.6 0 0 Z " fill="#D88F33" transform="translate(372,356)"/>
<path d="M0 0 C-0.08154769 4.00079252 -0.1943323 8.00013481 -0.3125 12 C-0.33505859 13.12535156 -0.35761719 14.25070313 -0.38085938 15.41015625 C-0.5907285 21.93517826 -1.27899107 27.04733704 -4 33 C-5.08796875 32.96519531 -6.1759375 32.93039062 -7.296875 32.89453125 C-16.37935777 32.69122305 -24.26662612 33.24580932 -33 36 C-34.08023438 36.30164063 -35.16046875 36.60328125 -36.2734375 36.9140625 C-42.35056427 38.65645549 -47.82849269 40.75392388 -53.40625 43.71484375 C-57.41790896 45.70254826 -61.61104135 47.17005554 -65.8046875 48.7265625 C-69.68981455 50.27491387 -73.32246208 52.15232946 -76.9765625 54.1796875 C-79 55 -79 55 -82 54 C-78.375 51 -78.375 51 -75 51 C-75 50.34 -75 49.68 -75 49 C-74.37351562 48.66226563 -73.74703125 48.32453125 -73.1015625 47.9765625 C-72.28429687 47.53054688 -71.46703125 47.08453125 -70.625 46.625 C-69.81289063 46.18414062 -69.00078125 45.74328125 -68.1640625 45.2890625 C-65.89185698 44.0556107 -65.89185698 44.0556107 -64 42 C-62.3463641 40.93776861 -60.67728651 39.89947898 -59 38.875 C-54.13424169 35.82272641 -49.6926703 32.47882132 -45.2890625 28.796875 C-42.95516854 26.96480807 -40.55677962 25.50019246 -38 24 C-36.57388816 23.01351662 -35.1576287 22.01268252 -33.75 21 C-3.96656051 0 -3.96656051 0 0 0 Z " fill="#C34351" transform="translate(350,226)"/>
<path d="M0 0 C4.03820631 0.52960083 4.38177495 0.61719941 6.8125 3.5 C7.81763886 4.82946367 8.81736836 6.16302925 9.8125 7.5 C10.98973017 8.84240946 12.17743726 10.17569735 13.375 11.5 C16.54134965 15.02322839 18.99787936 18.5595311 21.8125 22.5 C22.1425 15.24 22.4725 7.98 22.8125 0.5 C25.7825 0.5 28.7525 0.5 31.8125 0.5 C31.8125 13.7 31.8125 26.9 31.8125 40.5 C24.8125 40.5 24.8125 40.5 22.44140625 38.4453125 C21.75949219 37.51460938 21.07757813 36.58390625 20.375 35.625 C19.62347656 34.62984375 18.87195313 33.6346875 18.09765625 32.609375 C16.96650391 31.07023437 16.96650391 31.07023437 15.8125 29.5 C14.32079744 27.61839205 12.82137086 25.74286876 11.3125 23.875 C10.6628125 23.05773437 10.013125 22.24046875 9.34375 21.3984375 C7.95196318 19.6039788 7.95196318 19.6039788 6.8125 18.5 C6.78744385 19.13091553 6.7623877 19.76183105 6.73657227 20.41186523 C6.62095863 23.25396825 6.49807684 26.09571083 6.375 28.9375 C6.33568359 29.93072266 6.29636719 30.92394531 6.25585938 31.94726562 C6.21396484 32.89150391 6.17207031 33.83574219 6.12890625 34.80859375 C6.07391968 36.12041626 6.07391968 36.12041626 6.01782227 37.45874023 C5.8125 39.5 5.8125 39.5 4.8125 40.5 C2.14191149 40.64115161 -0.51182238 40.54247107 -3.1875 40.5 C-3.35472049 34.96428137 -3.51531942 29.42842623 -3.66967773 23.89233398 C-3.7231766 22.00751524 -3.7785118 20.12274772 -3.83569336 18.23803711 C-3.9173851 15.53510589 -3.9925554 12.83206161 -4.06640625 10.12890625 C-4.09344131 9.28099014 -4.12047638 8.43307404 -4.14833069 7.5594635 C-4.20030526 5.54026894 -4.19938213 3.51982842 -4.1875 1.5 C-3.1875 0.5 -3.1875 0.5 0 0 Z " fill="#0B0B0C" transform="translate(205.1875,355.5)"/>
<path d="M0 0 C1.64001004 4.0432952 0.31596271 7.53896429 -0.9375 11.5 C-1.15986328 12.20616455 -1.38222656 12.9123291 -1.61132812 13.63989258 C-4.73227536 22.897099 -9.988576 30.21440407 -17 37 C-18.13695312 38.16789062 -18.13695312 38.16789062 -19.296875 39.359375 C-33.78233989 53.47578346 -53.72004415 61.53514056 -73.8125 62.5625 C-74.60076172 62.60568359 -75.38902344 62.64886719 -76.20117188 62.69335938 C-78.13394215 62.79878321 -80.06695026 62.89983094 -82 63 C-82 63.66 -82 64.32 -82 65 C-81.34 65.33 -80.68 65.66 -80 66 C-87.92 65.01 -95.84 64.02 -104 63 C-100.76912638 60.84608425 -98.31182347 60.1525504 -94.5625 59.1875 C-93.58265137 58.92984863 -93.58265137 58.92984863 -92.58300781 58.66699219 C-88.81213995 57.68428117 -85.03088621 56.77133838 -81.23046875 55.91015625 C-58.85927841 50.75880797 -32.75266223 40.98113267 -16.234375 24.20703125 C-15 23 -15 23 -13 23 C-12.773125 22.46375 -12.54625 21.9275 -12.3125 21.375 C-11 19 -11 19 -8.75 16.5625 C-4.61592111 11.81139441 -2.47068699 5.72248464 0 0 Z " fill="#9D3246" transform="translate(285,146)"/>
<path d="M0 0 C2.97 0 5.94 0 9 0 C9 4.95 9 9.9 9 15 C14.28 15 19.56 15 25 15 C25.33 10.05 25.66 5.1 26 0 C28.97 0 31.94 0 35 0 C35 12.87 35 25.74 35 39 C32.26752652 40.36623674 30.01801098 40.128426 27 40 C26 39 26 39 25.90234375 35.40234375 C25.90808728 33.91402745 25.92110109 32.42573704 25.9375 30.9375 C25.958125 28.318125 25.97875 25.69875 26 23 C20.39 23 14.78 23 9 23 C9.03957157 28.22063275 9.03957157 28.22063275 9.09008789 33.44116211 C9.09723945 35.29433759 9.0502852 37.14749308 9 39 C8 40 8 40 4.5 40.125 C1 40 1 40 0 39 C-0.08865208 36.1156618 -0.11521296 33.25537842 -0.09765625 30.37109375 C-0.0962413 29.50686295 -0.09482635 28.64263214 -0.09336853 27.75221252 C-0.08775239 24.98060708 -0.07519719 22.2090812 -0.0625 19.4375 C-0.05748708 17.5631522 -0.05292381 15.68880315 -0.04882812 13.81445312 C-0.03777772 9.20960456 -0.0205023 4.60481579 0 0 Z " fill="#DA993A" transform="translate(283,356)"/>
<path d="M0 0 C2.64 0 5.28 0 8 0 C8.01458252 0.79696289 8.02916504 1.59392578 8.04418945 2.41503906 C8.11867475 6.02718124 8.21533512 9.63839974 8.3125 13.25 C8.33505859 14.50425781 8.35761719 15.75851562 8.38085938 17.05078125 C8.41630859 18.25605469 8.45175781 19.46132813 8.48828125 20.703125 C8.51446533 21.81333008 8.54064941 22.92353516 8.56762695 24.06738281 C9.04116457 27.27920317 9.7450892 28.69940708 12 31 C14.17125359 31.55611637 14.17125359 31.55611637 16.5 31.375 C17.66015625 31.35566406 17.66015625 31.35566406 18.84375 31.3359375 C21.29113699 31.10924376 21.29113699 31.10924376 24 29 C24.51184645 25.99585431 24.51184645 25.99585431 24.51171875 22.4609375 C24.54716797 21.15898437 24.58261719 19.85703125 24.61914062 18.515625 C24.64224231 17.13542191 24.66502464 15.75521343 24.6875 14.375 C24.72066445 12.98694648 24.7551533 11.59892393 24.79101562 10.2109375 C24.87374115 6.80737293 24.94281257 3.4040741 25 0 C27.97 0 30.94 0 34 0 C34.09938095 4.16253275 34.17170617 8.32442479 34.21972656 12.48779297 C34.23975843 13.90197795 34.26699248 15.31608097 34.30175781 16.72998047 C34.35065489 18.77071419 34.37305123 20.8103469 34.390625 22.8515625 C34.41157227 24.07697754 34.43251953 25.30239258 34.45410156 26.56494141 C33.73519811 32.0030982 31.27094261 35.02031507 27 38.3125 C20.9065828 41.74004717 14.99752133 41.81288714 8.3125 40 C3.91387708 37.34422767 1.82922023 34.81830549 0 30 C-0.59791659 24.81635168 -0.47435148 19.70123465 -0.3125 14.5 C-0.28737733 13.09118556 -0.26457117 11.6823278 -0.24414062 10.2734375 C-0.18548316 6.84784159 -0.10343481 3.4244877 0 0 Z " fill="#D89337" transform="translate(328,356)"/>
<path d="M0 0 C6.8537571 -0.19263518 11.17619198 0.7117062 16.578125 5.11328125 C15.953125 7.05078125 15.953125 7.05078125 14.578125 9.11328125 C9.38893581 10.51868666 9.38893581 10.51868666 6.578125 9.11328125 C-0.63389764 8.32905529 -0.63389764 8.32905529 -7.046875 10.98828125 C-9.86914042 15.34996417 -9.9264947 18.99626044 -9.421875 24.11328125 C-7.79787316 27.74795204 -6.76074456 28.88736821 -3.421875 31.11328125 C-1.04579633 31.46748886 -1.04579633 31.46748886 1.515625 31.42578125 C2.79759766 31.45091797 2.79759766 31.45091797 4.10546875 31.4765625 C7.0202606 31.04832294 8.39139179 30.03618586 10.578125 28.11328125 C13.04612547 29.2650148 14.62596065 30.1611169 16.578125 32.11328125 C16.640625 33.98828125 16.640625 33.98828125 15.578125 36.11328125 C10.20247005 40.61382958 4.91257033 40.83388175 -1.96875 40.62890625 C-7.91736436 39.74065162 -11.9422564 37.00155207 -15.8203125 32.484375 C-19.70657123 26.98573233 -20.09945281 21.62770792 -19.421875 15.11328125 C-17.62883728 8.96726643 -13.80156479 4.50662404 -8.421875 1.11328125 C-5.52436983 0.2118352 -3.00962192 0.14077264 0 0 Z " fill="#0D0D0E" transform="translate(129.421875,355.88671875)"/>
<path d="M0 0 C0 0.99 0 1.98 0 3 C-1.77117187 2.96519531 -1.77117187 2.96519531 -3.578125 2.9296875 C-5.13541033 2.91092503 -6.69270252 2.89272534 -8.25 2.875 C-9.02730469 2.85824219 -9.80460938 2.84148437 -10.60546875 2.82421875 C-14.68292009 2.78936874 -17.42143148 2.88287778 -21 5 C-22.67789081 5.34264869 -24.36754266 5.63036698 -26.0625 5.875 C-36.31517909 7.65572847 -45.50923527 12.01581809 -54.89477539 16.35791016 C-55.64106201 16.69870605 -56.38734863 17.03950195 -57.15625 17.390625 C-57.82462891 17.70032227 -58.49300781 18.01001953 -59.18164062 18.32910156 C-61 19 -61 19 -64 19 C-64 19.66 -64 20.32 -64 21 C-86.69572196 34.43006768 -107.91879078 43.68238394 -134 48 C-134.33 48.99 -134.66 49.98 -135 51 C-140.95302544 50.70234873 -144.68924801 47.85123021 -149 44 C-149 43.67 -149 43.34 -149 43 C-148.24493164 42.89977539 -147.48986328 42.79955078 -146.71191406 42.69628906 C-143.22287604 42.22618036 -139.73655219 41.73819017 -136.25 41.25 C-135.06277344 41.09273438 -133.87554687 40.93546875 -132.65234375 40.7734375 C-119.98449481 39.47406035 -119.98449481 39.47406035 -109 34 C-107.20887038 33.82765763 -105.41704909 33.66250319 -103.625 33.5 C-94.72521763 32.20211507 -87.27474763 28.18726603 -79.31738281 24.16503906 C-75.90456242 22.44928064 -72.45893907 20.80788371 -69 19.1875 C-68.39019287 18.90060303 -67.78038574 18.61370605 -67.15209961 18.31811523 C-62.70632552 16.25571778 -58.19397087 14.56874254 -53.56640625 12.96875 C-50.00013211 11.6225765 -46.66090897 9.91893882 -43.2890625 8.1484375 C-39.08096429 6.03720734 -34.92645946 4.64186673 -30.33984375 3.57421875 C-28.67398016 3.16540081 -27.02071069 2.70373215 -25.37890625 2.20703125 C-16.81510646 -0.26798823 -8.82238127 -0.30228971 0 0 Z " fill="#0F3A74" transform="translate(345,258)"/>
<path d="M0 0 C8.91 0 17.82 0 27 0 C27 2.31 27 4.62 27 7 C20.73 7 14.46 7 8 7 C8 9.97 8 12.94 8 16 C13.28 16 18.56 16 24 16 C24 18.31 24 20.62 24 23 C18.72 23 13.44 23 8 23 C8 28.61 8 34.22 8 40 C5.36 40 2.72 40 0 40 C0 26.8 0 13.6 0 0 Z " fill="#060607" transform="translate(248,356)"/>
<path d="M0 0 C3.26527446 2.12924458 6.23903936 4.47807873 8 8 C8.41654299 12.52589985 8.51073318 16.66641891 6.875 20.9375 C3.73653297 24.38981374 0.58443838 25.76893607 -4 26.4375 C-8.83375037 25.73257807 -11.78726161 23.45528607 -14.875 19.75 C-16.78960598 15.06985204 -16.78960598 10.93014796 -14.875 6.25 C-10.67667032 1.21200438 -6.59540982 -1.15708944 0 0 Z " fill="#F3F3F3" transform="translate(176,363)"/>
<path d="M0 0 C0 0.99 0 1.98 0 3 C-1.77117187 2.96519531 -1.77117187 2.96519531 -3.578125 2.9296875 C-5.13541033 2.91092503 -6.69270252 2.89272534 -8.25 2.875 C-9.41595703 2.84986328 -9.41595703 2.84986328 -10.60546875 2.82421875 C-14.68292009 2.78936874 -17.42143148 2.88287778 -21 5 C-22.67789081 5.34264869 -24.36754266 5.63036698 -26.0625 5.875 C-33.94280405 7.24863098 -40.92765434 10.07305078 -48.22265625 13.296875 C-49.16061035 13.7086499 -50.09856445 14.1204248 -51.06494141 14.54467773 C-52.96160077 15.38178058 -54.85337126 16.23006005 -56.73974609 17.09008789 C-57.61840332 17.4793042 -58.49706055 17.86852051 -59.40234375 18.26953125 C-60.19116943 18.62635986 -60.97999512 18.98318848 -61.79272461 19.35083008 C-64.29332365 20.08626784 -65.57459669 19.86125155 -68 19 C-54.0719755 12.64777948 -54.0719755 12.64777948 -48 10 C-47.02804687 9.57460938 -46.05609375 9.14921875 -45.0546875 8.7109375 C-40.13016835 6.60042929 -35.34306321 4.58745609 -30.09375 3.46875 C-28.51571256 3.11545804 -26.95463796 2.68513192 -25.40625 2.21875 C-16.83424823 -0.26989568 -8.83297613 -0.30265274 0 0 Z " fill="#5E3B6B" transform="translate(345,258)"/>
<path d="M0 0 C0.66 0.33 1.32 0.66 2 1 C1.13375 1.74056641 1.13375 1.74056641 0.25 2.49609375 C-0.4925 3.13675781 -1.235 3.77742188 -2 4.4375 C-3.11375 5.39462891 -3.11375 5.39462891 -4.25 6.37109375 C-5.11625 7.17740234 -5.11625 7.17740234 -6 8 C-6 8.33 -6 8.66 -6 9 C-4.02 8.67 -2.04 8.34 0 8 C-1.86192693 11.72385386 -6.2192306 12.73093055 -10 14 C-13.25345605 14.58343421 -16.50751213 15.00906808 -19.78515625 15.43359375 C-23.74353897 16.13100018 -27.1035153 17.50362846 -30.765625 19.11328125 C-33.85494608 20.33928804 -36.70082288 20.71311503 -40 21 C-37.20318677 19.13545785 -34.5172127 17.96025345 -31.40161133 16.74145508 C-20.14889297 12.33789378 -10.0138903 6.77101128 0 0 Z " fill="#91435A" transform="translate(259,277)"/>
<path d="M0 0 C2.14576637 -0.02685938 4.29162645 -0.04633088 6.4375 -0.0625 C7.63246094 -0.07410156 8.82742188 -0.08570313 10.05859375 -0.09765625 C13 0 13 0 14 1 C14.1875 3.9375 14.1875 3.9375 14 7 C12 9 12 9 9.1796875 9.1953125 C8.08914063 9.17210937 6.99859375 9.14890625 5.875 9.125 C4.77929688 9.10695313 3.68359375 9.08890625 2.5546875 9.0703125 C1.71164062 9.04710937 0.86859375 9.02390625 0 9 C0 6.03 0 3.06 0 0 Z " fill="#FCF8F4" transform="translate(381,379)"/>
<path d="M0 0 C0.66 0.33 1.32 0.66 2 1 C0.71494664 3.40947505 -0.29156561 4.77950335 -2.9453125 5.60546875 C-3.66460937 5.75628906 -4.38390625 5.90710938 -5.125 6.0625 C-7.043125 6.5265625 -7.043125 6.5265625 -9 7 C-9.33 7.99 -9.66 8.98 -10 10 C-14.97874064 9.52583422 -18.06718758 8.0900669 -22 5 C-22 4.34 -22 3.68 -22 3 C-21.16021606 2.970271 -21.16021606 2.970271 -20.3034668 2.93994141 C-17.76434146 2.84462217 -15.22603112 2.73497247 -12.6875 2.625 C-11.80642578 2.5940625 -10.92535156 2.563125 -10.01757812 2.53125 C-9.17001953 2.49257813 -8.32246094 2.45390625 -7.44921875 2.4140625 C-6.27879028 2.36693115 -6.27879028 2.36693115 -5.0847168 2.31884766 C-2.69844232 2.10412111 -2.69844232 2.10412111 0 0 Z " fill="#073670" transform="translate(220,299)"/>
<path d="M0 0 C0.33 0.66 0.66 1.32 1 2 C-0.98 4.97 -0.98 4.97 -3 8 C-2.01 8 -1.02 8 0 8 C2.00309329 8.31421071 4.00371336 8.6451046 6 9 C2.28809631 11.47460246 -1.13811362 12.18755875 -5.4375 13.1875 C-6.20126953 13.37763672 -6.96503906 13.56777344 -7.75195312 13.76367188 C-8.49251953 13.93833984 -9.23308594 14.11300781 -9.99609375 14.29296875 C-11.00434204 14.53309692 -11.00434204 14.53309692 -12.03295898 14.77807617 C-14.26356246 15.02973542 -15.87013053 14.66240813 -18 14 C-14.453689 10.89697787 -10.92341197 8.86365733 -6.671875 6.9296875 C-4.8168776 6.10405228 -4.8168776 6.10405228 -4 4 C-3.34 4 -2.68 4 -2 4 C-2 3.01 -2 2.02 -2 1 C-1.34 0.67 -0.68 0.34 0 0 Z " fill="#2871BE" transform="translate(213,189)"/>
<path d="M0 0 C3.63 0 7.26 0 11 0 C11.04254356 1.99954746 11.04080783 4.00041636 11 6 C10 7 10 7 7.71484375 7.09765625 C6.34005859 7.08025391 6.34005859 7.08025391 4.9375 7.0625 C4.01839844 7.05347656 3.09929687 7.04445313 2.15234375 7.03515625 C1.44207031 7.02355469 0.73179687 7.01195312 0 7 C0 4.69 0 2.38 0 0 Z " fill="#FDFBF9" transform="translate(381,364)"/>
<path d="M0 0 C0.66 0.33 1.32 0.66 2 1 C-0.43667603 3.60493869 -2.87448404 6.20881537 -5.3125 8.8125 C-6.00279297 9.55048828 -6.69308594 10.28847656 -7.40429688 11.04882812 C-8.07138672 11.76103516 -8.73847656 12.47324219 -9.42578125 13.20703125 C-10.03848877 13.8616333 -10.65119629 14.51623535 -11.2824707 15.19067383 C-14.37854584 18.45222505 -17.11649204 20.68838812 -21 23 C-22.68477344 24.31037934 -24.35648543 25.63823078 -26 27 C-26.66 26.67 -27.32 26.34 -28 26 C-18.54347826 17.45424982 -18.54347826 17.45424982 -14 13.5625 C-9.08775051 9.29447995 -4.55677118 4.64080999 0 0 Z " fill="#C46450" transform="translate(297,244)"/>
<path d="M0 0 C1.9375 0.3125 1.9375 0.3125 4 1 C4.33 1.99 4.66 2.98 5 4 C4.46632813 4.23074219 3.93265625 4.46148437 3.3828125 4.69921875 C-1.81566875 6.97467854 -6.84451516 9.44282487 -11.8359375 12.14453125 C-14 13 -14 13 -17 12 C-13.375 9 -13.375 9 -10 9 C-10 8.34 -10 7.68 -10 7 C-9.36191406 6.66226562 -8.72382813 6.32453125 -8.06640625 5.9765625 C-7.24011719 5.53054688 -6.41382813 5.08453125 -5.5625 4.625 C-4.32693359 3.96371094 -4.32693359 3.96371094 -3.06640625 3.2890625 C-0.86533422 2.16581441 -0.86533422 2.16581441 0 0 Z " fill="#B23F4A" transform="translate(285,268)"/>
<path d="M0 0 C0.66 0.33 1.32 0.66 2 1 C1.13375 1.70576172 1.13375 1.70576172 0.25 2.42578125 C-0.4925 3.04839844 -1.235 3.67101562 -2 4.3125 C-2.7425 4.92738281 -3.485 5.54226563 -4.25 6.17578125 C-6.34613723 7.93950063 -6.34613723 7.93950063 -6 11 C-8.97 11.66 -11.94 12.32 -15 13 C-15.33 12.01 -15.66 11.02 -16 10 C-13.38321437 8.29948946 -10.75537761 6.61689493 -8.125 4.9375 C-7.37863281 4.45216797 -6.63226563 3.96683594 -5.86328125 3.46679688 C-5.14785156 3.01240234 -4.43242187 2.55800781 -3.6953125 2.08984375 C-3.03547363 1.66566162 -2.37563477 1.24147949 -1.69580078 0.80444336 C-1.13618652 0.53897705 -0.57657227 0.27351074 0 0 Z " fill="#BC555C" transform="translate(259,277)"/>
<path d="M0 0 C0.33 0 0.66 0 1 0 C1.1967332 2.8329581 1.38259641 5.66596323 1.5625 8.5 C1.61857422 9.29148438 1.67464844 10.08296875 1.73242188 10.8984375 C2.00880361 15.39424702 1.90006503 19.53465598 1.24243164 23.98632812 C0.80150794 27.64870343 0.89600817 31.31680197 0.9375 35 C0.94201172 35.77472656 0.94652344 36.54945313 0.95117188 37.34765625 C0.96280242 39.23180524 0.98073094 41.11591365 1 43 C0.01 42.67 -0.98 42.34 -2 42 C-1.34 28.14 -0.68 14.28 0 0 Z " fill="#DD873B" transform="translate(279,185)"/>
<path d="M0 0 C0.33 0 0.66 0 1 0 C1 4.29 1 8.58 1 13 C2.65 13 4.3 13 6 13 C6 8.71 6 4.42 6 0 C6.66 0 7.32 0 8 0 C8.02685412 2.31243792 8.04632841 4.6249627 8.0625 6.9375 C8.07410156 8.22527344 8.08570313 9.51304687 8.09765625 10.83984375 C8 14 8 14 7 15 C4 15.125 4 15.125 1 15 C0 14 0 14 -0.09765625 10.83984375 C-0.08025391 8.90818359 -0.08025391 8.90818359 -0.0625 6.9375 C-0.05347656 5.64714844 -0.04445313 4.35679687 -0.03515625 3.02734375 C-0.02355469 2.02832031 -0.01195312 1.02929688 0 0 Z " fill="#D28B27" transform="translate(309,381)"/>
<path d="M0 0 C-3.18453477 2.63861452 -6.27084628 5.1832328 -10 7 C-11.9375 6.625 -11.9375 6.625 -14 6 C-16.00946222 6.27050453 -18.01354224 6.59367909 -20 7 C-17.59314207 4.59314207 -15.38005661 3.70644199 -12.25 2.375 C-11.22390625 1.92898438 -10.1978125 1.48296875 -9.140625 1.0234375 C-5.89611057 -0.03385451 -3.38721002 -0.1926856 0 0 Z " fill="#353565" transform="translate(281,278)"/>
<path d="M0 0 C-1.546875 1.984375 -1.546875 1.984375 -4 4 C-7.453125 4.390625 -7.453125 4.390625 -11.25 4.25 C-12.51328125 4.21390625 -13.7765625 4.1778125 -15.078125 4.140625 C-16.52445313 4.07101563 -16.52445313 4.07101563 -18 4 C-15.07089056 2.04726038 -12.91867709 1.24603637 -9.5625 0.3125 C-8.61503906 0.04050781 -7.66757813 -0.23148438 -6.69140625 -0.51171875 C-4.01081763 -0.99803744 -2.53712417 -0.89369149 0 0 Z " fill="#6E2E41" transform="translate(199,205)"/>
<path d="M0 0 C-3.97686104 2.6512407 -6.73578956 4.2190185 -11.546875 4.4140625 C-12.39121094 4.45273437 -13.23554688 4.49140625 -14.10546875 4.53125 C-14.97816406 4.5621875 -15.85085937 4.593125 -16.75 4.625 C-17.63816406 4.66367187 -18.52632812 4.70234375 -19.44140625 4.7421875 C-21.6273998 4.83620873 -23.81339062 4.92186143 -26 5 C-26.33 4.34 -26.66 3.68 -27 3 C-23.813827 2.49129467 -20.62588525 1.99463419 -17.4375 1.5 C-16.54224609 1.35691406 -15.64699219 1.21382813 -14.72460938 1.06640625 C-9.74996352 0.30107612 -5.03260643 -0.16568252 0 0 Z " fill="#4D355B" transform="translate(223,298)"/>
<path d="M0 0 C-0.99 1.485 -0.99 1.485 -2 3 C-5.375 3.125 -5.375 3.125 -9 3 C-11.31036915 3.42854995 -11.31036915 3.42854995 -13 4 C-13 3.01 -13 2.02 -13 1 C-11.58622218 0.63447197 -10.16879424 0.28304505 -8.75 -0.0625 C-7.96109375 -0.25972656 -7.1721875 -0.45695313 -6.359375 -0.66015625 C-3.89605178 -1.01497267 -2.34395868 -0.76877544 0 0 Z " fill="#842E4C" transform="translate(212,202)"/>
<path d="M0 0 C0.33 0.99 0.66 1.98 1 3 C-2.14594657 7.671254 -4.3616163 9.68874798 -10 11 C-8.71937515 9.2925002 -7.38232443 7.62626404 -6 6 C-5.34 6 -4.68 6 -4 6 C-3.71125 5.38125 -3.4225 4.7625 -3.125 4.125 C-2 2 -2 2 0 0 Z " fill="#914464" transform="translate(276,163)"/>
<path d="M0 0 C-0.598125 0.268125 -1.19625 0.53625 -1.8125 0.8125 C-4.02623801 1.84060274 -4.02623801 1.84060274 -5.28125 3.53125 C-7.6814398 5.58232128 -9.57352122 5.50432478 -12.6875 5.6875 C-14.17830078 5.78611328 -14.17830078 5.78611328 -15.69921875 5.88671875 C-16.45847656 5.92410156 -17.21773437 5.96148437 -18 6 C-15.3612314 4.24082094 -13.03921171 3.07080116 -10.125 1.875 C-8.86042969 1.34519531 -8.86042969 1.34519531 -7.5703125 0.8046875 C-4.89833906 -0.03182698 -2.78118973 -0.14952633 0 0 Z " fill="#3A2F54" transform="translate(241,292)"/>
<path d="M0 0 C0.99 0.495 0.99 0.495 2 1 C2.4140625 3.50390625 2.4140625 3.50390625 2.625 6.5625 C2.69976562 7.57441406 2.77453125 8.58632813 2.8515625 9.62890625 C2.92503906 10.80259766 2.92503906 10.80259766 3 12 C2.01 12 1.02 12 0 12 C0 8.04 0 4.08 0 0 Z " fill="#D48826" transform="translate(328,374)"/>
<path d="M0 0 C-1.47089893 3.87782445 -3.42749702 5.04362932 -7 7 C-8.34631825 7.98244845 -9.68441297 8.97676564 -11 10 C-11.66 9.67 -12.32 9.34 -13 9 C-11.21326795 7.4941255 -9.42046492 5.9954515 -7.625 4.5 C-6.62726563 3.6646875 -5.62953125 2.829375 -4.6015625 1.96875 C-2 0 -2 0 0 0 Z " fill="#41A895" transform="translate(208,153)"/>
<path d="M0 0 C-5.01372252 3.52913975 -8.83543922 5.61471495 -15 6 C-11.57875892 3.02500775 -4.44240633 -2.22120316 0 0 Z " fill="#503458" transform="translate(292,272)"/>
<path d="M0 0 C0.66 0 1.32 0 2 0 C0.22054913 4.04420651 -2.39529673 7.46078487 -5 11 C-5.99 10.67 -6.98 10.34 -8 10 C-6.71580959 8.32756598 -5.42242815 6.66218553 -4.125 5 C-3.04605469 3.6078125 -3.04605469 3.6078125 -1.9453125 2.1875 C-1.30335938 1.465625 -0.66140625 0.74375 0 0 Z " fill="#CB7B43" transform="translate(312,225)"/>
<path d="M0 0 C2.00720923 0.28674418 4.0085944 0.61866701 6 1 C2.99559979 3.00293347 1.29006055 3.49271626 -2.1875 4.125 C-3.08855469 4.29257813 -3.98960937 4.46015625 -4.91796875 4.6328125 C-5.60503906 4.75398437 -6.29210937 4.87515625 -7 5 C-6.67 3.68 -6.34 2.36 -6 1 C-4.7934375 1.0309375 -4.7934375 1.0309375 -3.5625 1.0625 C-1.06645115 1.29633621 -1.06645115 1.29633621 0 0 Z " fill="#376CBC" transform="translate(213,197)"/>
<path d="M0 0 C0.598125 0.20625 1.19625 0.4125 1.8125 0.625 C1.8125 1.615 1.8125 2.605 1.8125 3.625 C-0.1675 3.955 -2.1475 4.285 -4.1875 4.625 C-4.5175 3.635 -4.8475 2.645 -5.1875 1.625 C-2.1875 -0.375 -2.1875 -0.375 0 0 Z " fill="#B2414F" transform="translate(248.1875,285.375)"/>
<path d="M0 0 C0.33 1.32 0.66 2.64 1 4 C-3.455 4.495 -3.455 4.495 -8 5 C-3.375 0 -3.375 0 0 0 Z " fill="#266FA6" transform="translate(203,199)"/>
<path d="M0 0 C-0.33 0.99 -0.66 1.98 -1 3 C-3.9375 2.625 -3.9375 2.625 -7 2 C-7.33 1.34 -7.66 0.68 -8 0 C-4.71303767 -0.79953138 -3.28976808 -1.09658936 0 0 Z " fill="#09458C" transform="translate(211,306)"/>
<path d="M0 0 C0.33 0 0.66 0 1 0 C1 1.98 1 3.96 1 6 C-1 7 -3 8 -5 9 C-3.75471468 5.55151758 -2.38532951 2.80016942 0 0 Z " fill="#CF6A40" transform="translate(280,166)"/>
<path d="M0 0 C1.60080151 4.00200378 0.29279692 7.04556236 -1 11 C-1.99 11 -2.98 11 -4 11 C-2.7874262 7.27566618 -1.49140021 3.62197194 0 0 Z " fill="#865159" transform="translate(285,146)"/>
<path d="M0 0 C-1.4562545 0.67119549 -2.91507867 1.33681807 -4.375 2 C-5.59316406 2.556875 -5.59316406 2.556875 -6.8359375 3.125 C-9 4 -9 4 -11 4 C-10.67 3.01 -10.34 2.02 -10 1 C-3.84210526 -1.28070175 -3.84210526 -1.28070175 0 0 Z " fill="#257468" transform="translate(181,209)"/>
<path d="M0 0 C0.99 0 1.98 0 3 0 C2.67 1.65 2.34 3.3 2 5 C0.35 5.33 -1.3 5.66 -3 6 C-2.01 4.02 -1.02 2.04 0 0 Z " fill="#963E4F" transform="translate(280,157)"/>
<path d="M0 0 C-0.61875 0.433125 -1.2375 0.86625 -1.875 1.3125 C-4.2197245 2.99740483 -4.2197245 2.99740483 -6 6 C-6 4.68 -6 3.36 -6 2 C-6.99 1.67 -7.98 1.34 -9 1 C-5.57367167 -0.61798838 -3.61944899 -1.34053666 0 0 Z " fill="#77B3E9" transform="translate(234,142)"/>
<path d="M0 0 C0.33 0.99 0.66 1.98 1 3 C-0.40445835 5.2636564 -2.1967913 7.0208685 -4 9 C-4.66 8.34 -5.32 7.68 -6 7 C-5.01 6.67 -4.02 6.34 -3 6 C-3 5.01 -3 4.02 -3 3 C-2.34 3 -1.68 3 -1 3 C-0.67 2.01 -0.34 1.02 0 0 Z " fill="#418BE4" transform="translate(328,287)"/>
</svg>
